# xmcd CD database file
# Copyright (C) 1993-1998 Ti Kan
# 
# Track frame offsets:
#     150
#     23575
#     38705
#     64795
#     84025
#     111290
#     138545
#     151580
# 
# Disc length: 2228 seconds
# 
# Revision: 1
# Processed by: cddbd v1.4b41PL1 Copyright (c) Steve Scherf et al.
# Submitted via: DiscPlay 4.0.4
# 
DISCID=5408b208
DTITLE=Rufus Thomas - That Woman Is Poison!
DYEAR=1900
DGENRE=
TTITLE0=That Woman Is Poison!
TTITLE1=I Just Got To Know
TTITLE2=Big Fine Hunk Of Woman
TTITLE3=Blues In The Basement
TTITLE4=Somebody's Got To Go
TTITLE5=Breaking My Back
TTITLE6=The Walk
TTITLE7=All Night Worker
EXTD=
EXTT0=
EXTT1=
EXTT2=
EXTT3=
EXTT4=
EXTT5=
EXTT6=
EXTT7=
PLAYORDER=
